<svg id="svg" version="1.1" xmlns="http://www.w3.org/2000/svg" xmlns:xlink="http://www.w3.org/1999/xlink" width="400" height="400" viewBox="0, 0, 400,400"><g id="svgg"><path id="path0" d="M206.576 168.568 C 205.823 169.118,205.797 169.941,205.687 196.354 L 205.573 223.573 206.420 224.420 C 207.502 225.502,216.124 225.485,216.809 224.400 C 217.409 223.449,217.323 169.083,216.720 168.480 C 215.997 167.757,207.586 167.830,206.576 168.568 M164.900 169.612 L 164.000 169.974 164.000 196.813 C 164.000 214.549,164.140 223.915,164.414 224.426 C 164.916 225.363,173.823 225.617,174.720 224.720 C 175.064 224.376,175.200 221.736,175.200 215.371 L 175.200 206.502 181.900 206.282 C 188.569 206.064,191.629 205.577,192.831 204.543 C 193.179 204.244,193.665 204.000,193.913 204.000 C 194.770 204.000,196.400 203.069,196.400 202.579 C 196.400 202.308,196.850 201.974,197.400 201.836 C 197.950 201.698,198.400 201.434,198.400 201.251 C 198.400 201.067,198.852 200.429,199.405 199.832 C 200.586 198.558,202.000 195.912,202.000 194.976 C 202.000 194.616,202.282 193.727,202.627 193.001 C 203.905 190.307,202.791 180.623,200.858 177.622 C 197.281 172.069,193.103 170.052,184.200 169.580 C 175.610 169.125,166.073 169.141,164.900 169.612 M309.600 196.799 L 309.600 224.420 310.700 224.841 C 312.035 225.353,319.411 225.160,319.938 224.600 C 320.163 224.361,320.372 213.156,320.457 196.800 L 320.600 169.400 315.100 169.289 L 309.600 169.177 309.600 196.799 M187.100 171.087 C 186.495 171.178,185.505 171.178,184.900 171.087 C 184.295 170.995,184.790 170.920,186.000 170.920 C 187.210 170.920,187.705 170.995,187.100 171.087 M330.000 176.933 C 330.000 178.558,329.886 180.723,329.746 181.744 L 329.491 183.600 327.388 183.600 C 324.827 183.600,324.800 183.652,324.800 188.610 C 324.800 192.893,325.266 193.600,328.089 193.600 L 329.600 193.600 329.626 201.100 C 329.685 218.625,330.476 221.333,336.400 224.299 C 339.726 225.963,347.411 225.961,349.929 224.294 L 351.600 223.189 351.600 219.474 C 351.600 214.837,351.650 214.884,346.882 215.098 C 340.840 215.370,340.824 215.335,340.810 202.129 L 340.800 193.258 343.900 193.425 C 345.621 193.518,347.979 193.368,349.200 193.088 L 351.400 192.583 351.515 188.651 C 351.667 183.450,351.838 183.600,345.764 183.600 L 340.825 183.600 340.713 178.900 L 340.600 174.200 335.300 174.088 L 330.000 173.977 330.000 176.933 M181.513 177.893 C 180.476 177.976,178.676 177.976,177.513 177.895 C 176.351 177.814,177.200 177.747,179.400 177.746 C 181.600 177.745,182.551 177.811,181.513 177.893 M185.500 178.276 C 185.115 178.376,184.485 178.376,184.100 178.276 C 183.715 178.175,184.030 178.093,184.800 178.093 C 185.570 178.093,185.885 178.175,185.500 178.276 M186.000 180.162 C 188.963 181.623,189.363 181.969,190.490 184.053 C 191.769 186.416,191.901 190.388,190.749 191.803 C 187.561 195.715,185.801 196.400,178.945 196.400 L 175.200 196.400 175.200 188.067 C 175.200 183.483,175.335 179.596,175.500 179.429 C 176.081 178.840,184.513 179.428,186.000 180.162 M234.622 183.442 C 233.314 183.758,231.964 184.238,231.622 184.508 C 231.280 184.779,230.142 185.432,229.093 185.959 C 226.834 187.096,226.728 187.402,226.883 192.368 C 227.002 196.184,227.354 196.978,228.454 195.900 C 234.452 190.022,247.704 190.899,248.311 197.215 L 248.508 199.268 243.444 198.979 C 236.759 198.598,230.382 199.611,229.393 201.211 C 229.261 201.425,228.872 201.600,228.530 201.600 C 227.955 201.600,226.271 203.192,224.135 205.753 C 222.345 207.898,222.416 216.645,224.242 219.073 C 224.769 219.774,225.200 220.532,225.200 220.759 C 225.200 220.986,225.605 221.388,226.100 221.651 C 226.595 221.915,227.183 222.379,227.407 222.682 C 227.829 223.254,229.079 224.041,230.800 224.816 C 233.129 225.866,242.182 225.747,243.304 224.651 C 243.577 224.384,244.372 223.932,245.071 223.647 C 245.770 223.361,246.653 222.783,247.033 222.363 C 248.099 221.186,248.654 221.445,249.044 223.300 L 249.402 225.000 253.842 225.113 C 257.317 225.201,258.385 225.100,258.758 224.650 C 259.775 223.425,259.171 192.839,258.100 191.338 C 257.605 190.644,257.198 189.924,257.195 189.738 C 257.188 189.168,253.492 185.791,251.850 184.853 C 248.447 182.910,239.762 182.199,234.622 183.442 M282.905 183.462 C 280.937 183.928,280.008 184.429,278.505 185.834 L 276.600 187.614 276.179 185.707 L 275.758 183.800 270.736 183.688 L 265.714 183.577 265.483 185.525 C 264.927 190.225,265.376 224.414,266.000 224.808 C 266.992 225.436,274.918 225.294,275.824 224.633 C 276.557 224.097,276.611 223.346,276.800 210.933 L 277.000 197.800 278.367 196.100 C 279.119 195.165,279.929 194.396,280.167 194.391 C 280.405 194.386,281.050 194.030,281.600 193.600 C 282.289 193.061,283.223 192.818,284.600 192.818 C 285.977 192.818,286.911 193.061,287.600 193.600 C 288.150 194.030,288.780 194.386,289.000 194.391 C 289.220 194.396,289.940 195.075,290.600 195.900 L 291.800 197.400 292.000 210.867 C 292.110 218.275,292.350 224.485,292.532 224.667 C 293.252 225.388,301.825 225.318,302.557 224.586 C 303.437 223.706,303.384 194.823,302.500 193.940 C 302.225 193.665,301.997 192.981,301.994 192.420 C 301.991 191.859,301.728 190.950,301.410 190.400 C 301.092 189.850,300.718 189.183,300.580 188.918 C 300.226 188.240,297.704 185.600,297.411 185.600 C 297.277 185.600,296.657 185.222,296.032 184.760 C 293.622 182.978,287.501 182.373,282.905 183.462 M285.907 191.486 C 285.306 191.577,284.226 191.579,283.507 191.490 C 282.788 191.401,283.280 191.326,284.600 191.324 C 285.920 191.322,286.508 191.395,285.907 191.486 M329.507 191.886 C 328.906 191.977,327.826 191.979,327.107 191.890 C 326.388 191.801,326.880 191.726,328.200 191.724 C 329.520 191.722,330.108 191.795,329.507 191.886 M347.700 191.896 C 346.325 191.974,344.075 191.974,342.700 191.896 C 341.325 191.818,342.450 191.754,345.200 191.754 C 347.950 191.754,349.075 191.818,347.700 191.896 M246.307 205.086 C 245.706 205.177,244.626 205.179,243.907 205.090 C 243.188 205.001,243.680 204.926,245.000 204.924 C 246.320 204.922,246.908 204.995,246.307 205.086 M248.400 208.820 C 248.400 213.839,243.822 217.346,238.266 216.582 C 231.505 215.652,232.952 207.220,239.876 207.202 C 240.358 207.201,240.864 207.020,241.000 206.800 C 241.136 206.580,242.857 206.400,244.824 206.400 L 248.400 206.400 248.400 208.820 M173.882 214.500 C 173.787 214.995,173.709 214.590,173.709 213.600 C 173.709 212.610,173.787 212.205,173.882 212.700 C 173.978 213.195,173.978 214.005,173.882 214.500 M174.000 222.600 L 174.000 224.000 169.800 224.000 C 167.267 224.000,165.600 223.841,165.600 223.600 C 165.600 223.360,167.200 223.200,169.600 223.200 L 173.600 223.200 173.600 222.200 C 173.600 221.650,173.690 221.200,173.800 221.200 C 173.910 221.200,174.000 221.830,174.000 222.600 M302.000 223.157 C 302.000 223.777,300.832 224.000,297.591 224.000 C 293.070 224.000,293.147 223.260,297.686 223.098 C 299.729 223.026,301.535 222.929,301.700 222.883 C 301.865 222.837,302.000 222.961,302.000 223.157 M258.000 223.632 C 258.000 224.086,250.925 224.127,250.646 223.675 C 250.535 223.496,252.145 223.330,254.222 223.307 C 256.300 223.283,258.000 223.430,258.000 223.632 M274.600 223.600 C 274.464 223.820,272.754 224.000,270.800 224.000 C 268.846 224.000,267.136 223.820,267.000 223.600 C 266.841 223.343,268.204 223.200,270.800 223.200 C 273.396 223.200,274.759 223.343,274.600 223.600 M313.200 223.600 C 313.200 224.108,311.986 224.108,311.200 223.600 C 310.745 223.306,310.914 223.211,311.900 223.206 C 312.615 223.203,313.200 223.380,313.200 223.600 M315.600 223.600 C 315.600 223.820,315.150 224.000,314.600 224.000 C 314.050 224.000,313.600 223.820,313.600 223.600 C 313.600 223.380,314.050 223.200,314.600 223.200 C 315.150 223.200,315.600 223.380,315.600 223.600 " stroke="none" fill="#132654" fill-rule="evenodd"></path><path id="path1" d="M90.000 150.034 C 87.892 150.431,87.582 150.504,85.200 151.163 C 82.046 152.035,80.251 152.711,78.279 153.769 C 77.222 154.336,76.097 154.800,75.779 154.800 C 75.460 154.800,75.200 154.960,75.200 155.156 C 75.200 155.352,74.383 155.896,73.384 156.366 C 72.385 156.835,71.466 157.485,71.341 157.810 C 71.216 158.134,70.937 158.400,70.720 158.400 C 69.741 158.400,62.591 165.167,62.170 166.493 C 62.045 166.888,61.781 167.112,61.583 166.990 C 61.386 166.868,60.977 167.360,60.674 168.084 C 60.371 168.808,59.831 169.643,59.473 169.940 C 59.114 170.237,58.707 171.091,58.567 171.837 C 58.427 172.583,58.172 173.107,58.001 173.001 C 57.831 172.895,57.445 173.111,57.145 173.481 C 56.806 173.899,56.783 174.044,57.083 173.864 C 57.421 173.661,57.400 173.894,57.015 174.637 C 56.711 175.221,56.556 175.992,56.669 176.350 C 56.834 176.870,56.797 176.889,56.481 176.446 C 56.158 175.992,56.009 176.036,55.662 176.685 C 55.353 177.261,55.369 177.610,55.719 177.962 C 56.095 178.341,56.047 178.389,55.500 178.181 C 55.115 178.034,54.800 178.099,54.800 178.324 C 54.800 178.550,54.679 179.051,54.531 179.437 C 54.323 179.978,54.414 180.080,54.931 179.882 C 55.299 179.741,55.600 179.778,55.600 179.966 C 55.600 180.153,55.265 180.394,54.857 180.501 C 53.938 180.741,53.591 182.353,53.897 184.963 C 54.064 186.396,54.001 186.848,53.662 186.639 C 53.378 186.463,53.044 186.759,52.799 187.402 C 52.206 188.964,52.351 189.586,52.986 188.200 C 53.676 186.691,53.682 186.866,53.195 194.507 C 52.865 199.678,52.898 201.322,53.379 203.627 C 53.775 205.526,53.844 206.758,53.592 207.420 C 53.161 208.554,53.748 208.779,54.347 207.709 C 54.781 206.933,54.563 206.551,56.741 211.900 C 57.391 213.495,57.775 214.800,57.595 214.800 C 57.414 214.800,57.203 214.610,57.126 214.377 C 57.048 214.145,56.678 214.072,56.303 214.216 C 53.503 215.290,60.517 216.541,69.200 216.516 C 84.485 216.471,100.864 212.483,118.247 204.575 C 137.937 195.617,143.686 187.931,138.816 177.079 C 138.401 176.156,137.839 174.797,137.566 174.061 C 137.092 172.779,134.461 168.555,133.200 167.049 C 131.307 164.790,125.672 159.282,124.555 158.600 C 123.835 158.160,122.135 157.035,120.777 156.100 C 119.420 155.165,118.070 154.400,117.778 154.400 C 117.486 154.400,117.136 154.220,117.000 154.000 C 116.864 153.780,116.416 153.600,116.005 153.600 C 115.594 153.600,115.011 153.354,114.711 153.054 C 114.411 152.754,112.823 152.170,111.183 151.757 C 109.542 151.344,108.068 150.825,107.906 150.603 C 107.744 150.381,107.609 150.303,107.606 150.429 C 107.603 150.555,106.205 150.430,104.500 150.150 C 101.028 149.581,92.751 149.515,90.000 150.034 M142.227 157.437 C 141.920 158.659,139.140 161.486,137.684 162.057 C 136.671 162.454,136.649 162.512,137.348 162.941 C 139.641 164.348,140.558 165.058,140.721 165.556 C 140.832 165.893,140.726 166.001,140.452 165.832 C 139.759 165.404,139.915 165.833,140.677 166.451 C 141.137 166.824,141.257 166.840,141.053 166.500 C 140.888 166.225,140.922 166.000,141.128 166.000 C 141.334 166.000,141.736 166.585,142.021 167.300 C 142.305 168.015,142.580 168.658,142.631 168.729 C 142.683 168.800,143.728 167.855,144.954 166.629 C 146.180 165.403,147.377 164.400,147.615 164.400 C 147.853 164.400,147.928 164.208,147.783 163.973 C 147.638 163.738,147.897 163.447,148.360 163.326 C 149.421 163.049,149.439 162.530,148.400 162.200 C 147.960 162.060,147.600 161.769,147.600 161.553 C 147.600 161.013,145.020 158.400,144.487 158.400 C 144.249 158.400,143.945 158.057,143.812 157.637 C 143.430 156.433,142.508 156.317,142.227 157.437 M52.131 195.400 C 52.133 196.940,52.205 197.521,52.292 196.691 C 52.379 195.861,52.377 194.601,52.289 193.891 C 52.200 193.181,52.129 193.860,52.131 195.400 M138.419 202.704 C 128.407 210.649,106.618 219.653,87.352 223.806 C 84.267 224.471,74.625 225.664,70.616 225.877 L 65.832 226.131 68.216 228.312 C 71.873 231.659,76.720 234.807,79.800 235.837 C 80.900 236.205,82.024 236.683,82.298 236.901 C 85.950 239.792,107.219 240.107,111.703 237.336 C 111.916 237.205,112.257 237.346,112.461 237.649 C 112.743 238.066,112.805 238.006,112.717 237.400 C 112.631 236.815,112.862 236.563,113.573 236.463 C 114.544 236.325,120.146 233.233,122.800 231.369 C 124.523 230.159,130.718 224.078,131.275 223.050 C 131.499 222.637,132.306 221.482,133.069 220.483 C 135.764 216.952,139.080 208.566,139.785 203.500 C 140.095 201.270,140.171 201.314,138.419 202.704 M54.400 209.400 C 54.400 209.730,54.580 210.000,54.800 210.000 C 55.020 210.000,55.200 209.730,55.200 209.400 C 55.200 209.070,55.020 208.800,54.800 208.800 C 54.580 208.800,54.400 209.070,54.400 209.400 " stroke="none" fill="#61a0f3" fill-rule="evenodd"></path><path id="path2" d="M139.171 175.510 C 138.636 175.613,138.684 176.024,139.524 178.515 C 143.315 189.751,137.051 196.718,114.000 206.908 C 106.286 210.318,92.717 214.219,83.000 215.820 C 75.268 217.095,64.457 217.371,59.800 216.413 C 58.260 216.096,56.865 215.874,56.700 215.919 C 56.535 215.963,56.400 215.820,56.400 215.600 C 56.400 215.380,56.145 215.200,55.833 215.200 C 55.521 215.200,54.866 214.554,54.378 213.765 C 53.880 212.958,53.377 212.514,53.231 212.750 C 53.087 212.982,52.988 212.045,53.010 210.668 C 53.033 209.292,53.194 207.934,53.368 207.651 C 54.054 206.541,52.340 198.004,51.519 198.443 C 51.111 198.662,50.865 198.982,50.972 199.155 C 51.079 199.328,50.112 200.554,48.823 201.879 C 47.534 203.204,45.942 205.229,45.286 206.380 C 44.508 207.740,43.986 208.301,43.790 207.984 C 43.572 207.630,43.378 207.697,43.081 208.227 C 42.791 208.745,42.807 209.002,43.136 209.112 C 43.391 209.197,43.600 209.442,43.600 209.657 C 43.600 209.872,43.465 209.964,43.300 209.862 C 43.135 209.760,42.992 211.275,42.982 213.230 C 42.972 215.184,43.104 216.561,43.276 216.291 C 43.509 215.924,43.589 215.920,43.594 216.276 C 43.597 216.538,43.417 216.866,43.193 217.004 C 42.611 217.364,43.117 218.007,43.782 217.752 C 44.105 217.628,44.541 217.929,44.819 218.469 C 45.084 218.981,45.682 219.820,46.150 220.332 C 46.617 220.845,46.942 221.380,46.870 221.522 C 46.798 221.664,46.978 221.843,47.270 221.920 C 47.621 222.013,47.597 221.918,47.200 221.637 C 46.870 221.403,46.791 221.209,47.024 221.206 C 47.256 221.203,47.796 221.464,48.224 221.787 C 48.801 222.224,48.849 222.378,48.411 222.387 C 48.021 222.396,48.130 222.616,48.736 223.040 C 49.239 223.392,50.016 223.584,50.464 223.467 C 50.913 223.350,51.172 223.361,51.042 223.491 C 50.638 223.895,52.298 224.814,52.967 224.557 C 53.315 224.424,53.600 224.493,53.600 224.712 C 53.600 224.931,55.445 225.315,57.700 225.566 C 59.955 225.817,62.401 226.098,63.136 226.192 C 63.871 226.285,64.823 226.766,65.252 227.260 C 65.680 227.753,66.315 228.199,66.663 228.250 C 67.098 228.314,66.958 227.991,66.215 227.215 C 64.837 225.777,64.911 225.745,70.400 225.430 C 77.608 225.015,84.081 224.158,90.200 222.806 C 96.100 221.503,106.660 218.384,109.800 217.017 C 110.460 216.730,111.713 216.267,112.584 215.988 C 113.456 215.710,115.012 215.059,116.042 214.541 C 117.073 214.024,118.043 213.600,118.199 213.600 C 119.676 213.600,134.969 205.097,138.508 202.309 C 139.342 201.651,140.280 201.222,140.608 201.348 C 140.999 201.498,141.200 201.324,141.200 200.836 C 141.200 200.430,141.499 199.851,141.865 199.549 C 142.468 199.052,142.486 199.084,142.056 199.891 C 141.660 200.634,141.679 200.745,142.167 200.557 C 142.909 200.273,144.099 198.483,143.832 198.052 C 143.722 197.873,144.277 197.113,145.066 196.363 C 146.318 195.174,146.436 195.127,145.998 196.000 L 145.496 197.000 146.298 196.200 C 146.815 195.684,146.970 195.238,146.736 194.942 C 146.508 194.655,146.574 194.282,146.912 193.942 C 147.209 193.644,147.679 193.040,147.956 192.600 C 148.338 191.994,148.408 191.970,148.243 192.500 C 147.851 193.759,148.326 193.236,149.246 191.394 C 149.863 190.158,150.018 189.458,149.737 189.177 C 149.467 188.907,149.449 187.987,149.684 186.487 C 149.940 184.855,149.902 183.924,149.551 183.204 C 149.281 182.652,149.084 182.089,149.112 181.953 C 149.215 181.468,145.602 178.000,144.994 178.000 C 144.654 178.000,144.276 177.743,144.155 177.428 C 144.035 177.113,143.383 176.663,142.708 176.428 C 141.195 175.900,140.812 175.891,141.600 176.400 C 142.000 176.658,142.033 176.790,141.700 176.794 C 141.425 176.797,140.883 176.483,140.495 176.095 C 140.108 175.708,139.512 175.445,139.171 175.510 M149.300 190.283 C 149.025 190.384,148.800 190.752,148.800 191.100 C 148.800 191.448,148.701 191.635,148.581 191.514 C 148.460 191.393,148.483 190.810,148.631 190.218 C 148.837 189.399,149.009 189.256,149.351 189.621 C 149.684 189.977,149.671 190.147,149.300 190.283 M45.829 203.829 C 45.049 204.609,45.030 204.840,45.769 204.557 C 46.082 204.436,46.436 204.082,46.557 203.769 C 46.840 203.030,46.609 203.049,45.829 203.829 " stroke="none" fill="#5840c2" fill-rule="evenodd"></path><path id="path3" d="M142.486 155.400 C 141.934 155.642,141.394 156.398,141.119 157.313 C 140.636 158.924,139.042 160.800,138.155 160.800 C 137.224 160.800,135.077 162.288,135.667 162.525 C 136.110 162.703,136.109 162.803,135.662 163.117 C 135.251 163.405,135.366 163.555,136.150 163.752 C 137.652 164.129,141.015 166.227,140.909 166.721 C 140.776 167.342,142.004 170.129,142.287 169.847 C 142.418 169.715,142.761 169.801,143.047 170.039 C 143.447 170.371,143.632 170.210,143.851 169.339 C 144.007 168.717,144.383 167.960,144.687 167.656 C 144.990 167.353,145.123 166.991,144.983 166.852 C 144.843 166.714,144.333 167.095,143.849 167.700 C 142.782 169.035,142.553 169.063,142.260 167.897 C 141.914 166.519,139.997 164.415,138.297 163.547 C 136.925 162.847,136.579 162.000,137.666 162.000 C 138.539 162.000,141.149 159.533,141.916 157.985 C 142.723 156.352,143.502 156.390,144.110 158.093 C 144.209 158.372,144.431 158.469,144.602 158.310 C 144.774 158.150,144.696 157.756,144.429 157.435 C 144.163 157.114,143.822 156.435,143.672 155.926 C 143.439 155.134,143.268 155.058,142.486 155.400 M147.493 161.234 C 147.599 161.641,148.027 162.082,148.443 162.214 C 149.458 162.536,149.400 163.054,148.317 163.337 C 147.832 163.464,147.541 163.674,147.670 163.804 C 148.077 164.210,150.000 163.539,150.000 162.990 C 150.000 162.702,150.225 162.383,150.500 162.280 C 150.811 162.164,150.698 161.992,150.200 161.826 C 149.760 161.679,148.927 161.320,148.350 161.027 C 147.392 160.541,147.317 160.559,147.493 161.234 M138.014 175.137 C 138.022 175.502,138.286 176.250,138.600 176.800 C 139.251 177.939,139.418 177.555,138.786 176.374 C 138.460 175.765,138.503 175.600,138.986 175.600 C 139.876 175.600,139.740 174.930,138.800 174.684 C 138.235 174.536,138.004 174.669,138.014 175.137 M140.184 184.066 C 140.193 185.964,140.332 187.310,140.494 187.058 C 140.854 186.497,140.822 182.964,140.444 181.608 C 140.289 181.053,140.175 182.135,140.184 184.066 M53.572 185.100 C 53.547 186.075,53.505 186.109,53.200 185.400 C 52.889 184.675,52.854 184.697,52.828 185.633 C 52.810 186.298,53.014 186.667,53.400 186.667 C 53.813 186.667,54.000 186.252,54.000 185.333 C 54.000 183.736,53.612 183.525,53.572 185.100 M52.556 188.366 C 52.580 189.044,52.735 189.599,52.900 189.599 C 53.065 189.600,53.200 189.881,53.200 190.224 C 53.200 190.567,53.040 190.748,52.845 190.628 C 52.314 190.300,52.177 192.141,52.401 196.600 L 52.602 200.600 52.889 198.000 C 53.303 194.260,53.620 186.902,53.340 187.545 C 53.162 187.955,53.030 187.972,52.807 187.612 C 52.644 187.347,52.531 187.684,52.556 188.366 M137.826 191.500 C 136.962 192.605,136.893 192.790,137.563 192.204 C 138.365 191.504,139.423 190.000,139.114 190.000 C 139.051 190.000,138.472 190.675,137.826 191.500 M129.681 198.572 C 127.823 199.885,127.562 200.261,129.131 199.362 C 129.863 198.943,130.650 198.375,130.880 198.100 C 131.471 197.393,131.193 197.502,129.681 198.572 M126.300 200.629 C 124.805 201.440,124.896 201.778,126.400 201.000 C 127.060 200.659,127.600 200.294,127.600 200.190 C 127.600 199.932,127.557 199.947,126.300 200.629 M139.149 201.900 C 138.645 202.542,138.661 202.552,139.336 202.021 C 142.003 199.923,136.590 215.870,133.069 220.483 C 132.306 221.482,131.499 222.637,131.275 223.050 C 130.718 224.078,124.523 230.159,122.800 231.369 C 120.052 233.299,114.400 236.400,113.631 236.400 C 112.684 236.400,112.341 236.857,112.768 237.549 C 113.023 237.960,113.192 237.957,113.642 237.530 C 113.949 237.238,114.560 236.938,115.000 236.863 C 119.666 236.062,131.185 226.162,134.620 220.000 C 135.049 219.230,135.515 218.510,135.655 218.400 C 135.916 218.195,137.205 215.319,137.359 214.600 C 137.405 214.380,137.784 213.570,138.200 212.800 C 139.072 211.185,139.176 210.821,139.428 208.465 C 139.530 207.510,139.880 206.462,140.207 206.136 C 141.004 205.339,141.040 201.200,140.249 201.200 C 139.946 201.200,139.451 201.515,139.149 201.900 M121.200 203.200 C 120.430 203.622,119.980 203.966,120.200 203.966 C 120.420 203.966,121.230 203.622,122.000 203.200 C 122.770 202.778,123.220 202.434,123.000 202.434 C 122.780 202.434,121.970 202.778,121.200 203.200 M137.000 203.450 C 136.281 204.062,136.134 204.305,136.633 204.057 C 137.366 203.693,138.741 202.376,138.349 202.414 C 138.267 202.422,137.660 202.888,137.000 203.450 M116.000 205.600 C 115.230 206.022,114.713 206.374,114.851 206.383 C 115.265 206.411,118.000 205.205,118.000 204.995 C 118.000 204.646,117.425 204.820,116.000 205.600 M112.091 207.283 C 110.930 207.740,110.053 208.186,110.141 208.274 C 110.337 208.470,113.655 207.210,114.180 206.740 C 114.695 206.280,114.526 206.323,112.091 207.283 M53.700 208.214 C 52.779 209.105,52.483 210.400,53.200 210.400 C 53.420 210.400,53.555 210.175,53.500 209.900 C 53.445 209.625,53.625 209.445,53.900 209.500 C 54.175 209.555,54.400 209.420,54.400 209.200 C 54.400 208.980,54.580 208.800,54.800 208.800 C 55.020 208.800,55.200 209.070,55.200 209.400 C 55.200 209.730,55.039 210.000,54.842 210.000 C 54.433 210.000,55.229 212.978,55.771 213.473 C 55.977 213.662,56.006 213.462,55.840 213.000 C 55.621 212.390,55.664 212.310,56.021 212.665 C 56.585 213.224,56.191 214.000,55.343 214.000 C 54.481 214.000,54.907 214.975,55.833 215.122 C 56.403 215.212,56.463 215.149,56.066 214.877 C 55.643 214.586,55.682 214.454,56.259 214.233 C 56.661 214.078,57.048 214.143,57.126 214.377 C 57.203 214.610,57.406 214.800,57.577 214.800 C 57.889 214.800,55.326 207.997,54.853 207.572 C 54.714 207.447,54.195 207.735,53.700 208.214 M129.500 208.027 C 128.675 208.463,128.000 208.908,128.000 209.018 C 128.000 209.127,128.720 208.849,129.600 208.400 C 130.480 207.951,131.200 207.497,131.200 207.392 C 131.200 207.130,131.197 207.131,129.500 208.027 M106.000 209.498 C 105.010 209.848,104.395 210.198,104.634 210.278 C 104.873 210.358,105.863 210.070,106.834 209.640 C 108.959 208.697,108.494 208.618,106.000 209.498 M125.500 210.027 C 124.675 210.463,124.000 210.908,124.000 211.018 C 124.000 211.196,127.159 209.719,127.567 209.351 C 128.027 208.934,126.825 209.328,125.500 210.027 M97.600 212.200 C 96.830 212.497,96.470 212.739,96.800 212.739 C 97.130 212.739,98.030 212.497,98.800 212.200 C 99.570 211.903,99.930 211.661,99.600 211.661 C 99.270 211.661,98.370 211.903,97.600 212.200 M120.400 212.600 C 119.410 213.130,118.780 213.564,119.000 213.564 C 119.220 213.564,120.210 213.130,121.200 212.600 C 122.190 212.070,122.820 211.636,122.600 211.636 C 122.380 211.636,121.390 212.070,120.400 212.600 M89.000 214.426 C 86.972 214.959,86.691 215.099,87.981 214.932 C 89.842 214.692,93.442 213.675,92.400 213.684 C 92.070 213.687,90.540 214.021,89.000 214.426 M116.500 214.234 C 115.785 214.546,115.200 214.894,115.200 215.007 C 115.200 215.215,118.006 214.127,118.346 213.787 C 118.686 213.447,117.820 213.657,116.500 214.234 M60.000 216.457 C 61.800 216.992,76.438 216.994,78.800 216.459 C 80.286 216.123,80.007 216.097,77.200 216.312 C 73.008 216.632,64.227 216.619,61.000 216.287 C 58.945 216.076,58.801 216.101,60.000 216.457 M110.929 216.530 C 108.884 217.286,108.890 217.657,110.936 216.960 C 111.961 216.611,112.800 216.252,112.800 216.162 C 112.800 215.919,112.337 216.010,110.929 216.530 M104.275 218.873 C 102.996 219.319,102.020 219.753,102.105 219.839 C 102.191 219.924,103.507 219.559,105.030 219.027 C 106.554 218.495,107.530 218.060,107.200 218.061 C 106.870 218.062,105.554 218.428,104.275 218.873 M96.600 221.200 C 95.280 221.604,94.410 221.950,94.668 221.967 C 95.209 222.005,100.118 220.790,100.367 220.557 C 100.758 220.189,98.823 220.519,96.600 221.200 M89.600 222.857 C 88.830 223.053,86.940 223.465,85.400 223.774 C 83.860 224.082,82.960 224.349,83.400 224.367 C 84.328 224.405,89.641 223.393,91.400 222.844 C 92.941 222.362,91.505 222.373,89.600 222.857 M80.500 224.676 C 80.885 224.776,81.515 224.776,81.900 224.676 C 82.285 224.575,81.970 224.493,81.200 224.493 C 80.430 224.493,80.115 224.575,80.500 224.676 M76.367 224.956 C 76.275 225.042,73.860 225.240,71.000 225.397 C 65.044 225.723,64.855 225.781,65.946 226.942 C 66.389 227.414,66.717 227.929,66.676 228.087 C 66.587 228.422,67.531 229.436,69.094 230.683 C 69.702 231.169,70.741 232.002,71.401 232.536 C 75.202 235.602,83.298 238.942,88.200 239.465 C 89.300 239.583,90.444 239.879,90.742 240.123 C 91.640 240.860,100.697 240.946,102.596 240.236 C 103.478 239.906,105.422 239.535,106.917 239.411 C 108.411 239.287,109.941 239.022,110.317 238.822 C 110.692 238.622,111.315 238.361,111.700 238.242 C 112.085 238.123,112.400 237.827,112.400 237.586 C 112.400 237.312,112.061 237.254,111.501 237.432 C 102.908 240.159,86.025 239.852,82.298 236.901 C 82.024 236.683,80.900 236.205,79.800 235.837 C 76.720 234.807,71.873 231.658,68.216 228.313 L 65.833 226.132 71.016 225.845 C 73.867 225.687,76.920 225.408,77.800 225.225 L 79.400 224.892 77.967 224.846 C 77.178 224.821,76.458 224.870,76.367 224.956 " stroke="none" fill="#5458ca" fill-rule="evenodd"></path><path id="path4" d="M142.302 154.600 C 142.197 155.150,142.244 155.600,142.406 155.600 C 142.941 155.600,143.674 154.444,143.411 154.018 C 142.972 153.307,142.502 153.554,142.302 154.600 M134.600 162.800 C 134.736 163.020,135.107 163.200,135.424 163.200 C 135.741 163.200,136.000 163.020,136.000 162.800 C 136.000 162.580,135.629 162.400,135.176 162.400 C 134.723 162.400,134.464 162.580,134.600 162.800 M150.000 162.987 C 150.000 163.345,150.235 163.485,150.600 163.345 C 150.930 163.218,151.200 162.954,151.200 162.757 C 151.200 162.561,150.930 162.400,150.600 162.400 C 150.270 162.400,150.000 162.664,150.000 162.987 M142.400 170.351 C 142.400 170.818,142.569 171.200,142.776 171.200 C 143.469 171.200,143.598 170.496,142.996 169.996 C 142.500 169.585,142.400 169.645,142.400 170.351 M184.900 171.087 C 185.505 171.178,186.495 171.178,187.100 171.087 C 187.705 170.995,187.210 170.920,186.000 170.920 C 184.790 170.920,184.295 170.995,184.900 171.087 M177.513 177.895 C 178.676 177.976,180.476 177.976,181.513 177.893 C 182.551 177.811,181.600 177.745,179.400 177.746 C 177.200 177.747,176.351 177.814,177.513 177.895 M184.100 178.276 C 184.485 178.376,185.115 178.376,185.500 178.276 C 185.885 178.175,185.570 178.093,184.800 178.093 C 184.030 178.093,183.715 178.175,184.100 178.276 M149.529 187.230 C 149.443 188.126,149.514 188.947,149.687 189.054 C 149.859 189.160,150.000 188.427,150.000 187.424 C 150.000 185.160,149.736 185.051,149.529 187.230 M148.629 190.229 C 148.330 191.418,148.906 192.400,149.417 191.573 C 149.615 191.253,149.559 191.178,149.262 191.362 C 148.992 191.528,148.800 191.401,148.800 191.057 C 148.800 190.732,149.025 190.384,149.300 190.283 C 149.671 190.147,149.684 189.977,149.351 189.621 C 149.009 189.256,148.836 189.402,148.629 190.229 M283.507 191.490 C 284.226 191.579,285.306 191.577,285.907 191.486 C 286.508 191.395,285.920 191.322,284.600 191.324 C 283.280 191.326,282.788 191.401,283.507 191.490 M327.107 191.890 C 327.826 191.979,328.906 191.977,329.507 191.886 C 330.108 191.795,329.520 191.722,328.200 191.724 C 326.880 191.726,326.388 191.801,327.107 191.890 M342.700 191.896 C 344.075 191.974,346.325 191.974,347.700 191.896 C 349.075 191.818,347.950 191.754,345.200 191.754 C 342.450 191.754,341.325 191.818,342.700 191.896 M148.000 192.339 C 148.000 192.525,147.644 193.088,147.208 193.590 C 146.773 194.092,146.522 194.673,146.650 194.881 C 146.925 195.326,148.132 193.721,148.288 192.704 C 148.347 192.317,148.306 192.000,148.197 192.000 C 148.089 192.000,148.000 192.152,148.000 192.339 M144.871 196.526 C 144.164 197.256,143.709 197.976,143.860 198.126 C 144.284 198.550,144.878 198.449,144.600 198.000 C 144.464 197.780,144.547 197.600,144.785 197.600 C 145.023 197.600,145.420 197.156,145.667 196.613 C 145.915 196.069,146.298 195.737,146.520 195.874 C 146.749 196.016,146.800 195.924,146.638 195.662 C 146.260 195.051,146.339 195.012,144.871 196.526 M48.900 200.675 C 47.745 201.922,46.800 203.101,46.800 203.295 C 46.800 203.489,46.622 203.537,46.405 203.403 C 46.183 203.266,46.108 203.416,46.234 203.743 C 46.373 204.107,46.142 204.428,45.623 204.593 C 45.164 204.738,44.892 205.025,45.018 205.229 C 45.144 205.433,45.102 205.601,44.924 205.603 C 44.379 205.608,43.568 207.728,43.960 208.120 C 44.240 208.400,45.077 206.941,44.879 206.518 C 44.805 206.358,47.026 203.789,49.033 201.714 C 50.152 200.558,51.067 199.339,51.067 199.006 C 51.067 198.250,51.338 198.041,48.900 200.675 M141.611 199.787 C 141.343 200.109,141.193 200.580,141.277 200.832 C 141.361 201.084,141.645 200.820,141.907 200.245 C 142.440 199.074,142.337 198.912,141.611 199.787 M243.907 205.090 C 244.626 205.179,245.706 205.177,246.307 205.086 C 246.908 204.995,246.320 204.922,245.000 204.924 C 243.680 204.926,243.188 205.001,243.907 205.090 M42.914 213.000 C 42.917 214.100,42.995 214.503,43.087 213.895 C 43.179 213.286,43.177 212.386,43.082 211.895 C 42.987 211.403,42.911 211.900,42.914 213.000 M173.709 213.600 C 173.709 214.590,173.787 214.995,173.882 214.500 C 173.978 214.005,173.978 213.195,173.882 212.700 C 173.787 212.205,173.709 212.610,173.709 213.600 M43.600 218.000 C 43.600 218.220,43.810 218.400,44.067 218.400 C 44.323 218.400,44.414 218.519,44.269 218.664 C 44.124 218.809,44.367 219.182,44.809 219.491 C 45.252 219.801,45.539 220.177,45.449 220.327 C 45.246 220.663,46.027 221.354,46.812 221.532 C 47.131 221.605,47.508 221.852,47.650 222.081 C 47.792 222.310,48.138 222.421,48.419 222.327 C 48.709 222.230,48.292 221.779,47.457 221.287 C 46.646 220.808,45.609 219.783,45.152 219.008 C 44.353 217.654,43.600 217.165,43.600 218.000 M173.600 222.200 L 173.600 223.200 169.600 223.200 C 167.200 223.200,165.600 223.360,165.600 223.600 C 165.600 223.841,167.267 224.000,169.800 224.000 L 174.000 224.000 174.000 222.600 C 174.000 221.830,173.910 221.200,173.800 221.200 C 173.690 221.200,173.600 221.650,173.600 222.200 M297.686 223.098 C 295.441 223.178,294.066 223.383,294.209 223.615 C 294.469 224.034,300.341 224.151,301.367 223.757 C 301.987 223.520,302.291 222.719,301.700 222.883 C 301.535 222.929,299.729 223.026,297.686 223.098 M250.646 223.675 C 250.925 224.127,258.000 224.086,258.000 223.632 C 258.000 223.430,256.300 223.283,254.222 223.307 C 252.145 223.330,250.535 223.496,250.646 223.675 M267.000 223.600 C 267.136 223.820,268.846 224.000,270.800 224.000 C 272.754 224.000,274.464 223.820,274.600 223.600 C 274.759 223.343,273.396 223.200,270.800 223.200 C 268.204 223.200,266.841 223.343,267.000 223.600 M311.200 223.600 C 311.986 224.108,313.200 224.108,313.200 223.600 C 313.200 223.380,312.615 223.203,311.900 223.206 C 310.914 223.211,310.745 223.306,311.200 223.600 M313.600 223.600 C 313.600 223.820,314.050 224.000,314.600 224.000 C 315.150 224.000,315.600 223.820,315.600 223.600 C 315.600 223.380,315.150 223.200,314.600 223.200 C 314.050 223.200,313.600 223.380,313.600 223.600 " stroke="none" fill="#2c3c64" fill-rule="evenodd"></path></g></svg>